Patient4_TMGait_0pt5_01_right_11_EMG.mot
version=1
nRows=30
nColumns=33
inDegrees=no
endheader
time	1LAddLong	2LGlutMax	3LGlutMed	4LIliopsoas	5LSemiMemb	6LBicFemLong	7LRecFem	8LVastMed	9LVastLat	10LGasMed	11LTibAnt	12lTibPost	13LPeroneusLong	14LSol	15LExtDigLong	16LFlexDigLong	17RAddLong	18RGlutMax	19RGlutMed	20RIliopsoas	21RSemiMemb	22RBicFemLong	23RRecFem	24RVastMed	25RVastLat	26RGasMed	27RTibAnt	28RTibPost	29RPeroneusLong	30RSol	31RExtDigLong	32RFlexDigLong
14.597	-0.010223	-0.10559	0.098267	-0.00412	-0.008698	0.005798	0.1181	-0.030518	0.15778	0.001831	-0.11078	-0.009918	-0.10223	-0.064087	-0.40176	-0.00946	0.15442	-0.11032	0.10254	0.021973	-0.094299	0.55344	0.20935	-0.23987	-0.02243	-0.049438	-1.2836	-0.068207	0.044556	-1.1031	0.005493	-0.013885
14.598	-0.009155	-0.13336	0.097809	-0.013733	-0.002136	0.012665	0.11307	-0.025024	0.15243	-0.012207	0.091553	-0.008392	-0.092468	-0.038147	-0.31097	-0.010376	0.12741	-0.17319	0.11536	0.032043	0.20142	0.1088	0.27145	-0.26596	-0.03479	-0.18494	-1.2	-0.20676	0.12253	-0.42541	-0.002289	-0.011902
14.599	-0.019073	-0.13626	0.091705	-0.003662	-0.01709	0.000305	0.21393	-0.02243	0.13718	0.002594	0.064087	-0.004883	-0.094757	0.042419	-0.17136	-0.015717	-0.037689	-0.18173	0.075531	-0.06958	0.62363	0.11383	0.21561	-0.1799	-0.030823	-0.34149	-1.2692	-0.090332	-0.073395	0.98785	0.000305	-0.013885
14.6	-0.011597	-0.16388	0.058136	-0.008392	0.018768	-0.010376	0.28381	-0.026093	0.12528	-0.003357	-0.063477	-0.010071	-0.049438	-0.007782	-0.20355	-0.015564	-0.18799	-0.20981	-0.34775	-0.034485	0.000305	0.29862	0.067749	0.028229	-0.051727	-0.22812	-1.0388	-0.12177	0.14145	1.7303	-0.002136	-0.008392
14.601	-0.013885	-0.16144	0.041351	-0.001984	-0.00351	-0.016937	0.23956	-0.015717	0.11078	0.000305	-0.084991	-0.01236	-0.049744	-0.13855	0.037537	-0.008392	-0.19379	-0.17578	-0.42068	0.052795	-0.072021	0.27939	-0.092316	0.26016	-0.12558	0.049744	-0.41657	-0.13748	0.6163	1.4098	0.006409	-0.00351
14.602	-0.003815	-0.1088	0.065918	0.009766	0.000153	-0.037231	0.031281	-0.011139	0.09964	-0.018311	-0.048981	-0.010681	-0.043182	-0.069275	0.47821	-0.018311	-0.159	-0.12711	0.38467	0.039368	-0.18463	0.24811	-0.16266	0.24094	-0.029907	0.019531	0.33463	-0.18723	0.36636	0.83206	-0.001373	-0.020447
14.603	-0.010834	-0.10788	0.043488	-0.010376	-0.005798	-0.024719	-0.20828	-0.005798	0.1062	-0.010376	0.007019	-0.012054	-0.12054	0.033112	0.56549	-0.023956	-0.12085	-0.17563	0.02243	0.007935	-0.062561	0.03006	-0.089417	0.060272	-0.097351	0.11276	0.74814	-0.1181	0.28076	0.21362	-0.003357	-0.029449
14.604	-0.004425	-0.078735	0.040588	-0.001984	-0.004578	-0.027771	-0.27008	-0.005798	0.099487	-0.00946	-0.037994	-0.005646	-0.15305	0.048523	0.48248	-0.025635	-0.042877	-0.23483	-0.36636	0.039215	-0.019226	-0.061493	0.10742	0.031128	-0.09613	0.17899	1.4726	0.13062	-0.12894	0.289	-0.000153	-0.031128
14.605	-0.002136	-0.11353	0.015717	0.004425	0.002441	-0.034332	-0.18707	-0.007172	0.09491	-0.0177	0.11795	-0.004578	-0.18524	0.070953	0.36163	-0.023193	-0.033112	-0.31616	-0.63614	0.085754	0.014191	0.039978	-0.015869	-0.027771	-0.023499	0.1239	1.6216	0.35339	-0.42297	0.029907	-0.006409	-0.026093
14.606	-0.004272	-0.14999	-0.022125	-0.019073	0.000305	-0.019684	-0.059662	0.001526	0.089874	-0.03006	0.31418	-0.00351	-0.22095	0.069122	0.25833	-0.015411	-0.091705	-0.35233	-0.17425	0.071259	0.11139	0.06012	-0.018311	0.088196	0.033264	0.099792	0.51727	0.30395	-0.54123	-0.048828	-0.003967	-0.019379
14.607	-0.007324	-0.2095	-0.006866	-0.004272	0.002594	-0.02655	-0.10025	0.004578	0.078125	-0.044861	0.20737	-0.000763	-0.17059	0.052032	0.28976	-0.019379	-0.078735	-0.37857	-0.63217	0.12268	0.11337	0.021515	0.071869	0.091095	0.019836	0.088654	0.62195	0.097809	-0.64499	0.12146	-0.001831	-0.012207
14.608	-0.005798	-0.2124	-0.010223	0.01358	0.009003	-0.028076	0.14694	0.017395	0.064392	-0.043793	0.094452	0.004883	-0.047607	0.029602	0.071411	-0.024109	0.016327	-0.39963	-0.44144	0.11688	-0.054169	0.039215	0.27206	0.046692	-0.030823	0.065155	0.28488	-0.004425	-0.78507	0.11551	0.003967	-0.022736
14.609	-0.006409	-0.15854	-0.01297	-0.010376	-0.002747	0.000458	0.21362	0.023041	0.041504	-0.052185	-0.070038	-0.003815	0.022736	0.048676	0.049591	-0.010681	0.050049	-0.37033	-0.015717	0.00061	-0.19836	-0.27679	0.24796	0.055084	-0.041351	0.014343	-0.64041	-0.031281	-0.61401	-0.51148	-0.001221	-0.028839
14.61	-0.008392	-0.25955	-0.003052	-0.006409	0.001221	-0.009766	0.075836	0.015106	0.031891	-0.037842	0.041656	0.006409	-0.006256	0.048981	0.14725	-0.028839	0.046692	-0.49881	-0.059052	-0.11597	-0.22812	-0.37186	0.050354	0.052643	-0.086517	-0.007019	-0.1561	-0.034027	-0.23392	-1.3803	-0.002747	-0.028687
14.611	-0.010986	-0.28961	0.002136	-0.019531	-0.020142	-0.018768	-0.16907	0.026245	0.043335	-0.032043	-0.021362	0.003967	-0.003204	0.11658	-0.16892	-0.036316	0.016937	-0.74081	-0.35568	-0.112	-0.17609	-0.28763	0.11643	-0.033264	-0.13123	0.007019	-0.401	-0.042572	0.37735	-2.2345	-0.002747	-0.018616
14.612	-0.001831	-0.28564	-0.029297	-0.003052	0.006256	-0.018463	-0.36057	0.03479	0.051575	-0.027466	-0.24979	-0.002747	0.041351	0.17136	-0.29968	-0.055389	0.043335	-0.86578	0.044098	-0.24017	-0.39963	-0.24811	0.2124	-0.12161	-0.13473	-0.032196	-0.68314	-0.057068	1.1427	-3.0969	-0.002136	-0.031433
14.613	-0.004272	-0.28717	-0.013275	0.000763	-0.002136	-0.023651	-0.38391	0.03006	0.065613	-0.011139	-0.096588	-0.005646	-0.009003	0.040131	-0.1561	-0.041656	-0.007629	-0.90836	0.69946	-0.2829	-0.2652	-0.23666	0.22064	-0.09552	-0.1619	-0.056915	-0.71838	-0.047913	0.74783	-2.9062	-0.00412	-0.020599
14.614	-0.00473	-0.31326	0.015869	-0.014038	-0.002594	-0.005035	-0.32303	0.021973	0.090027	0.009003	0.084381	-0.002441	-0.071716	-0.070343	0.43091	-0.0383	-0.037537	-0.92926	0.53757	-0.17685	-0.065765	-0.21271	-0.015259	-0.037537	-0.11673	-0.028687	-0.89096	-0.046234	0.51178	-1.3365	-0.001831	-0.025024
14.615	-0.009003	-0.36346	-0.016937	-0.00351	-0.005188	0.003815	-0.31265	0.015869	0.11169	-0.002899	0.19669	-0.01358	-0.1088	-0.055542	0.072479	-0.024719	-0.028534	-0.94498	0.7402	0.095825	0.015564	-0.15411	-0.080872	-0.063477	-0.093994	-0.003967	-1.0268	-0.063324	0.084991	0.45059	-0.000305	-0.027924
14.616	-0.013428	-0.38971	-0.056458	-0.013733	0.007477	-0.006866	-0.16174	0.009003	0.12009	0.002594	0.31265	-0.00824	-0.13245	0.033875	-0.17654	-0.026855	-0.014648	-1.0507	0.24124	0.39291	-0.18219	-0.05249	-0.093689	-0.062714	-0.066681	-0.009766	-0.88333	0.017242	-0.19028	1.9397	-0.005798	-0.024719
14.617	-0.00824	-0.46677	-0.035095	-0.002441	0.003967	-0.002899	-0.14526	-0.001984	0.13718	-0.004425	0.24948	-0.007172	-0.10712	0.052338	-0.52322	-0.037994	-0.007935	-1.1732	-0.092468	0.3627	-0.23834	0.075836	-0.11673	0.077972	0.09079	-0.027313	-0.44113	-0.096588	0.006104	3.2123	-0.005646	-0.018768
14.618	-0.007019	-0.48538	-0.01709	-0.006409	-0.007935	0.001984	-0.18829	-0.00351	0.13397	-0.022888	0.014191	-0.002136	0.027008	0.069275	0.00061	-0.040283	-0.006714	-1.3834	-0.45639	0.30121	-0.19257	0.13825	-0.065002	0.2803	0.20599	0.005035	0.001373	-0.53451	0.026855	3.8538	-0.01297	-0.01236
14.619	0.000458	-0.4982	-0.019989	-0.006714	0.012665	0.001678	-0.2449	-0.005798	0.12253	0.017395	0.059814	-0.007019	-0.009308	0.11658	0.21576	-0.054474	-0.02121	-1.6022	-0.62134	0.121	0.35111	0.085907	-0.000153	0.25848	0.12878	0.044098	0.1387	-0.66284	0.11108	2.7403	-0.005798	-0.014801
14.62	-0.000458	-0.46539	0.006409	-0.029907	-0.006561	0.002594	-0.29022	-0.008545	0.11551	0.0354	0.011292	0.001526	-0.055847	0.21454	0.43289	-0.046387	-0.032043	-1.6364	-0.34225	-0.001526	0.37521	0.062866	-0.042419	0.22232	0.12192	0.025787	0.23636	-0.018005	-0.1506	0.98328	0.000458	-0.018768
14.621	-0.00351	-0.47455	0.039978	-0.000153	0.00061	-0.012054	-0.28336	-0.004425	0.095215	-0.005035	-0.31174	0.007477	0.002899	0.22507	0.049591	-0.046997	-0.046844	-1.6856	-0.1239	-0.008087	0.13534	0.12405	0.030518	0.18662	0.11063	0.016327	0.2684	0.65094	-0.17425	0.159	-0.003662	-0.019684
14.622	0.005341	-0.47836	0.028534	0.000153	0.000458	-0.001831	-0.29968	-0.012207	0.067902	0.009766	-0.12528	0.002289	-0.037689	0.19867	0.028229	-0.037842	-0.031738	-1.6719	-0.11795	-0.063782	-0.23148	0.008545	0.13275	0.16419	0.073395	-0.019379	0.50415	0.41596	-0.16617	0.50537	-0.010376	-0.028687
14.623	0.002441	-0.53253	-0.004578	0.007782	-0.00351	0.006104	-0.28992	-0.010223	0.071259	0.018311	0.076599	0.006561	-0.074463	0.12817	-0.76492	-0.040588	-0.018768	-1.7361	-0.32761	-0.058594	0.037231	-0.14603	0.1329	0.078888	0.058136	-0.035706	0.7373	0.097504	-0.24689	-0.28076	-0.002136	-0.029907
14.624	0.007172	-0.57175	-0.01297	-0.014496	0.00412	-0.004425	-0.18173	-0.005798	0.089111	0.029144	0.18463	0.006104	-0.092926	0.032043	-0.68558	-0.03418	-0.016632	-1.5912	-0.49149	-0.030975	0.2095	-0.20371	0.072937	-0.002289	0.04837	-0.002747	0.87494	0.11658	-0.095062	-0.096588	-0.004578	-0.013275
14.625	0.008087	-0.62485	-0.02243	-0.024109	-0.00061	-0.023956	-0.069275	0.003052	0.088348	0.051575	-0.093536	-0.001373	-0.11017	-0.021667	-0.4007	-0.027313	-0.003357	-1.5126	-0.51483	-0.066376	0.094604	-0.15884	0.089264	-0.071716	0.29388	0.019073	1.7822	0.066223	-0.18112	-0.43686	-0.001221	-0.020142
14.626	0.010529	-0.63141	-0.001831	0.019226	0.00824	-0.010986	-0.019073	-0.002136	0.05127	0.044861	-0.40237	0.007324	-0.072784	-0.039673	-0.21378	-0.031891	-0.004578	-1.4757	-0.4245	-0.027313	0.055237	-0.084991	0.059204	-0.11444	0.35416	-0.001831	1.9342	0.013428	-0.12421	-0.9317	-0.001831	-0.005341
